<?xml version="1.0" standalone="no"?><!DOCTYPE svg PUBLIC "-//W3C//DTD SVG 1.1//EN" "http://www.w3.org/Graphics/SVG/1.1/DTD/svg11.dtd" ><svg xmlns="http://www.w3.org/2000/svg"><metadata></metadata><defs><font id="叶根友毛笔行书简体:Version 1.00" horiz-adv-x="298"><font-face font-family="叶根友毛笔行书简体" font-weight="400" font-stretch="normal" units-per-em="256" panose-1="2 1 6 1 3 1 1 1 1 1" ascent="218" descent="-38" x-height="1" bbox="-10 -69 284 238" underline-thickness="12" underline-position="-25" unicode-range="U+00b7-ff0c" /><missing-glyph horiz-adv-x="256" d="M85 4 l86 0 l0 171 l-86 0 l0 -171 Z" /><glyph glyph-name="" unicode="·" d="M154 92 q-2 23 -25 25 l-1 0 q-23 -2 -25 -26 l0 -1 q1 -23 25 -24 l1 0 q23 2 25 24 l0 2 Z" /><glyph glyph-name="" unicode="&#xff0c;" d="M63 45 q-18 -3 -21 -21 l0 -4 q2 -19 22 -22 q5 -3 0 -15 q-3 -7 -11 -15 q2 -2 3 -2 q25 13 31 46 l0 6 q-3 25 -22 27 l-2 0 Z" /><glyph glyph-name="" unicode="&#x4e00;" d="M221 110 q20 -17 28 -36 q0 -12 -16 -12 l-28 4 l-28 -4 l0 8 l16 4 l0 4 l-32 0 q-96 -16 -96 -40 l-4 -4 l-12 0 q-37 19 -48 32 q0 8 120 36 l100 8 Z" /><glyph glyph-name="" unicode="&#x4e2a;" d="M131 214 l8 -16 l-28 -52 l40 4 l24 0 q45 0 56 -20 q0 -9 -28 -12 l0 4 q0 12 -40 12 l-12 0 q-34 0 -92 -40 l-12 0 l-8 8 l0 12 q76 81 76 88 l16 12 ZM119 114 l4 0 q8 0 24 -40 q0 -128 -36 -128 q-15 2 -28 36 q24 9 24 60 l12 72 Z" /><glyph glyph-name="" unicode="&#x4e92;" d="M123 206 q40 -6 40 -16 l0 -16 l-32 -24 l-4 -12 l20 4 l12 0 l12 -12 l-20 -100 q88 -4 88 -28 q-6 -16 -12 -16 l-4 0 l-60 20 l-4 0 q-33 0 -124 -36 l-8 0 l-16 16 l0 4 q0 10 64 24 q0 8 48 12 l4 20 l0 4 l-80 -16 l-4 4 l0 8 q39 41 64 96 l-24 40 q39 16 40 24 ZM91 70 l4 0 q44 0 44 48 l-12 0 l-36 -48 Z" /><glyph glyph-name="" unicode="&#x4f17;" d="M139 220 l16 -16 l0 -4 l-16 -40 l4 0 q48 -5 48 -20 l0 -4 q0 -6 -72 -24 q-36 -40 -36 -76 q32 -5 32 -16 l0 -12 l-8 -8 l-4 0 l-28 24 q-25 -48 -56 -48 l-12 20 q0 28 32 28 l44 68 l0 4 q-17 0 -24 16 l0 16 q56 48 68 92 l12 0 ZM183 104 q12 0 12 -16 q0 -55 -44 -92 l-8 0 l-12 12 l0 4 q51 55 52 92 ZM203 44 l4 0 q48 -16 48 -64 l-4 -4 l-4 0 l0 4 l-4 -4 l-8 0 q-14 0 -32 64 l0 4 Z" /><glyph glyph-name="" unicode="&#x4f18;" d="M204 210 q25 -8 28 -20 l0 -16 l-12 -12 q-14 3 -24 24 l0 16 l8 8 ZM60 198 l8 0 q24 -14 24 -36 l0 -16 l-44 -48 q12 -13 12 -52 l4 0 l12 48 l8 0 q-6 -40 -36 -112 l-12 -12 l-4 0 q-12 4 -12 24 q27 41 28 72 l0 4 l-8 8 q0 -8 -12 -8 q-20 7 -20 20 q52 82 52 108 ZM160 174 l8 -16 l-4 -12 l4 0 l20 8 l16 -12 q-48 -7 -48 -40 q16 -6 16 -12 l0 -56 l12 -12 l8 0 q48 0 48 76 l8 0 l0 -36 l8 -32 l0 -16 q0 -23 -60 -32 q-29 8 -44 32 l0 76 l-4 0 l-40 -76 l-8 8 l0 8 l40 92 l-4 0 l-28 -8 l0 8 q44 0 48 52 l4 0 Z" /><glyph glyph-name="" unicode="&#x4f34;" d="M174 222 l8 0 l20 -20 l0 -28 l4 0 l12 4 l12 -20 q0 -17 -32 -36 l0 -8 q20 -1 20 -12 q-25 -32 -36 -32 l0 -12 l44 4 l12 -4 l0 -8 q-15 -8 -52 -8 l-8 -40 l4 -12 l-4 0 l4 -4 l0 -28 l-16 -16 l-4 0 l-12 16 l4 56 l0 8 l-8 8 q0 -9 -36 -20 l0 16 l44 40 l0 12 l-24 -8 l-8 8 l0 4 q40 27 40 52 l0 8 l-4 0 q0 -24 -12 -24 l-4 0 q-10 0 -16 28 l4 4 l4 0 l20 -8 q20 19 20 80 ZM74 182 q24 -20 24 -36 q0 -20 -28 -56 l4 -4 l0 -12 l-4 -24 l0 -4 l4 0 q7 32 16 32 l0 -16 q-20 -84 -32 -84 l-4 0 q-9 0 -12 20 l12 60 q-32 6 -32 16 l0 12 q41 52 48 96 l4 0 ZM198 170 l0 -16 l4 0 l4 16 l-8 0 Z" /><glyph glyph-name="" unicode="&#x4f60;" d="M131 174 l8 0 q9 0 16 -32 l40 8 q18 -8 20 -16 l0 -4 q-28 -32 -44 -32 l8 -68 q-5 -60 -16 -60 l-16 0 q-24 32 -32 32 q-8 -28 -16 -28 l-16 0 l0 36 q5 40 16 40 q12 -2 12 -32 q11 0 24 -12 l12 0 l8 40 l-8 48 l4 16 l-12 -8 l-16 0 l-4 20 l12 52 ZM59 158 l4 0 q11 0 16 -28 q-16 -44 -24 -44 l4 -48 l4 0 l8 20 l8 0 q-27 -76 -32 -76 l-4 0 l-12 12 l8 60 q-28 0 -28 16 q48 64 48 88 ZM203 38 q17 -5 24 -20 l0 -12 l-12 -12 l-8 0 q-8 0 -12 40 l4 4 l4 0 Z" /><glyph glyph-name="" unicode="&#x4fdd;" d="M55 194 l4 0 q24 -10 24 -32 q0 -20 -32 -72 l8 -52 l4 0 l12 48 l8 0 q-24 -112 -40 -112 l-12 8 l12 76 l0 8 l-24 0 l-8 8 l0 12 q44 67 44 92 l0 16 ZM211 186 l0 -8 l-32 -36 q12 0 12 -8 l-8 -28 l4 0 q20 -5 20 -12 q-6 -16 -28 -16 l0 -64 l4 -16 q0 -15 -24 -28 l-4 0 q-23 32 -44 32 l0 8 l8 8 l36 -20 l8 72 l-4 0 l-56 -32 l-4 0 l-12 12 q0 16 20 16 l0 4 l4 -4 l8 0 q48 22 48 44 l-40 -24 l8 12 q-19 0 -24 64 l-4 4 l4 4 l8 0 q20 -12 20 -52 l4 0 q0 15 44 52 l-32 0 l0 8 l56 8 ZM143 114 l-4 -12 l4 0 l12 12 l-12 0 ZM99 26 q5 0 16 -36 l4 -4 l-16 -16 l-4 0 q-8 0 -12 32 q5 24 12 24 ZM223 22 l20 -20 l0 -8 l-12 -12 l-4 0 l-12 12 l4 12 l-4 12 l4 4 l4 0 Z" /><glyph glyph-name="" unicode="&#x505a;" d="M56 190 l12 0 q16 -6 16 -28 l-28 -56 q0 -22 -24 -32 l-12 4 l-4 -4 l-4 4 l0 4 q16 44 48 88 l-4 4 l0 16 ZM180 174 l4 0 q13 0 20 -48 l4 4 l4 0 l12 -12 q-32 -28 -36 -76 q48 -32 84 -32 l12 -12 l-24 -24 q-84 17 -84 40 l-8 0 q-32 -24 -48 -24 l-4 4 l0 16 l4 0 l12 -8 q27 13 32 28 l-20 32 q0 -16 -40 -48 l-8 0 l-8 8 l0 16 l12 64 l-4 0 l-24 -4 l0 4 q0 10 32 12 q6 20 28 20 q0 -8 12 -8 l4 -4 l0 -4 q-9 -8 -28 -8 l-12 -36 l36 12 l28 -28 l4 4 l0 20 q-20 0 -20 16 q20 37 20 60 l-8 8 l12 8 ZM48 82 l8 0 l12 -12 l0 -16 q-19 -84 -32 -84 l-4 0 l0 4 q7 32 12 32 l-4 4 l8 56 l0 16 ZM108 58 l0 -16 q16 4 16 20 l-4 0 l-12 -4 Z" /><glyph glyph-name="" unicode="&#x5168;" d="M112 218 l8 0 q0 -20 28 -20 q65 -56 108 -56 l0 -4 l-12 -12 l-48 0 q-23 0 -80 64 q0 -18 -88 -124 l-12 0 l0 12 q96 114 96 140 ZM152 134 l4 -4 l0 -12 l-8 -40 l12 -12 q0 -12 -32 -60 l20 4 l8 0 l12 -12 l0 -4 q0 -14 -68 -24 l-8 16 l0 12 l8 12 l0 4 l-12 16 q5 48 40 48 l0 8 q-28 0 -28 16 l0 4 l52 28 ZM116 50 l-4 -20 q9 0 12 20 l-8 0 Z" /><glyph glyph-name="" unicode="&#x51fa;" d="M102 238 q44 -21 44 -60 l0 -12 l32 8 l20 0 l8 -8 l0 -8 q-36 -49 -56 -52 l0 -52 l-8 -32 l12 0 q28 36 40 36 l12 -24 q0 -35 -36 -64 l-4 0 l-8 8 l0 8 q24 0 24 40 l0 16 l-4 0 q-7 -44 -60 -44 q-31 -16 -64 -16 l-8 0 q-12 4 -12 24 q1 14 60 72 l0 28 l-4 0 q-24 -28 -48 -28 l-16 16 l0 56 l8 8 l8 0 l24 -24 l4 0 q28 0 28 28 l-4 36 l0 32 l8 8 ZM146 146 l0 -8 l8 -8 l20 20 l0 4 l-28 -8 ZM62 6 l8 0 l28 4 l-4 32 l-32 -36 Z" /><glyph glyph-name="" unicode="&#x5206;" d="M71 221 l8 0 l20 -24 l0 -4 l-12 -40 l4 0 q27 0 32 -24 l-16 -40 l4 4 l4 0 q32 0 40 -60 q0 -64 -48 -88 l-92 24 l0 12 l4 0 l24 -8 l32 0 q47 0 52 36 l0 56 l-8 8 q-25 0 -56 -44 l-8 0 l-12 12 l0 20 q27 25 44 60 l0 8 l-4 0 l-44 -40 q-20 12 -20 28 q56 48 56 92 l-4 12 ZM139 177 l12 0 q92 -23 92 -28 q-21 -52 -56 -52 q-42 39 -56 72 l8 8 Z" /><glyph glyph-name="" unicode="&#x53cc;" d="M186 176 l12 0 l12 -12 l0 -8 q-19 -20 -20 -52 l0 -24 q13 -26 76 -48 l0 -16 l-12 -12 q-41 0 -72 40 l-4 0 q-15 -32 -56 -32 l-24 -12 l-8 12 q0 8 12 8 l4 -4 l4 0 q38 15 56 40 l0 8 l-36 44 l4 4 l4 0 q14 0 36 -20 l8 52 l-28 -12 l-12 0 l0 4 q14 21 44 40 ZM110 160 l4 -4 l0 -20 q-12 -15 -12 -28 l0 -24 q12 0 12 -8 l0 -12 q0 -8 -32 -16 q0 -21 -44 -44 l-12 -4 q-36 7 -36 16 l12 12 l8 -8 q60 13 60 48 l0 4 l-12 16 l0 8 q0 8 24 8 l4 20 l-4 0 l-20 -8 l-4 4 l0 8 q31 32 52 32 Z" /><glyph glyph-name="" unicode="&#x56de;" d="M170 144 l36 0 q56 -13 56 -28 l0 -12 l-24 -24 l0 -60 q0 -24 -28 -44 l-20 0 l-48 28 l-4 0 l-36 -8 q-56 0 -56 28 q0 28 -28 64 l0 8 l8 0 q43 0 60 -68 l0 -8 l8 0 l48 4 q0 -16 60 -16 l16 0 l4 28 l0 64 q0 13 -40 16 l-120 -16 l0 4 q46 40 108 40 ZM166 100 l16 0 l8 -8 l-20 -24 q0 -28 -40 -28 l-4 4 l-8 -8 l-4 0 l0 12 l-4 40 l12 4 l4 -4 l4 0 l36 12 ZM142 80 l-8 -12 l0 -4 q12 12 28 12 l0 4 l-20 0 Z" /><glyph glyph-name="" unicode="&#x56e2;" d="M187 219 q39 0 60 -32 l0 -4 q-12 -15 -12 -28 l0 -20 l8 -160 q0 -10 -20 -20 q-85 0 -112 44 l-20 -12 l-32 0 l-28 -4 l-8 12 l0 36 q0 123 24 152 l4 0 l24 -20 q-8 -44 -8 -136 l0 -8 l4 -4 l0 -4 l20 4 q20 -1 20 -8 l4 4 l8 0 q39 -36 64 -36 l28 12 l0 84 l-4 120 l-20 4 l-76 -20 l-8 0 l0 4 q34 40 80 40 ZM159 179 q8 0 8 -20 l20 0 l8 -8 q-32 -27 -32 -60 l0 -48 l-8 -8 l-8 0 l0 16 l-12 0 q0 -14 -24 -20 l-28 4 l0 4 q52 46 64 80 l-28 -4 l-4 0 l-8 8 l40 28 q0 28 12 28 Z" /><glyph glyph-name="" unicode="&#x578b;" d="M183 219 q18 -8 20 -16 q-12 -39 -12 -68 l0 -56 q0 -28 -24 -28 q-24 4 -24 12 l0 8 l4 0 l28 -4 l0 136 q-12 0 -12 8 l20 8 ZM79 191 q32 0 32 -16 q-4 -16 -16 -16 l0 -20 l28 8 l4 -4 l0 -4 l-36 -20 l4 -4 l0 -8 q0 -21 -16 -28 l-4 0 l4 28 l0 8 l-4 0 q-11 0 -24 -48 l-4 -4 l-8 0 l0 36 l-24 -12 l-4 4 l0 4 l32 16 l0 36 l8 8 l4 0 q9 0 12 -28 l12 0 l0 16 l-32 36 q3 12 32 12 ZM143 179 l8 -8 l0 -52 q0 -21 -12 -24 l-8 8 l4 64 l0 4 l8 8 ZM115 91 l4 0 q12 0 12 -40 l16 -20 l0 -8 l-16 -40 l4 0 l16 -4 l28 0 l8 -8 q-6 -16 -28 -16 q-8 8 -48 12 l-68 -12 l-4 4 l0 4 q0 15 52 24 l0 8 q-22 0 -28 20 l12 16 l20 0 q5 60 20 60 Z" /><glyph glyph-name="" unicode="&#x5b89;" d="M110 199 l4 0 q33 0 72 -32 l48 0 l8 -8 l0 -4 q-54 -60 -76 -60 l0 -8 l24 0 q2 16 12 16 l8 -16 l20 0 q52 -3 52 -16 l0 -4 q0 -12 -16 -12 l-24 4 l-16 -4 l0 4 l8 12 l-28 0 l-24 -40 l0 -8 l72 -16 q0 -12 20 -12 l0 -16 q-6 -16 -28 -16 l-8 0 q-53 36 -76 36 l-4 0 q-56 -44 -80 -44 l-20 0 l-24 20 l0 8 l12 12 l16 -12 l12 0 l52 20 l0 4 q-36 0 -36 8 q0 15 24 40 l0 4 l-8 0 q-32 -2 -68 -40 l-12 0 l-8 8 l20 24 l-8 24 q0 31 60 80 l4 -4 l4 0 l-8 -24 l8 0 l20 12 l0 8 l-8 32 l0 20 ZM114 111 l-40 -36 l0 -12 l4 0 q58 10 76 40 l4 4 l0 4 l-12 -4 l-32 4 ZM126 35 l36 0 l16 32 l0 4 l-16 0 q-36 -5 -36 -36 Z" /><glyph glyph-name="" unicode="&#x5bb6;" d="M79 219 q39 -11 56 -28 l4 0 l28 8 l12 -16 q-12 -26 -40 -36 l8 -12 l0 -4 l-24 -32 l0 -4 q24 -8 24 -28 l28 4 l0 -4 l-24 -24 l0 -16 q60 -11 60 -20 l-8 -8 l-64 12 l0 -4 q-2 -14 -56 -52 l-20 0 q-21 0 -28 16 l0 8 l8 8 l16 -12 l12 0 q52 17 52 32 l0 8 l-8 0 q-14 0 -40 -28 l-4 -4 l-4 0 l-4 4 l0 12 l24 28 l-4 0 q0 -7 -28 -24 l-4 0 l0 12 l28 32 q-16 0 -16 8 l0 16 q0 10 28 20 l0 4 l-12 0 l0 20 q56 45 56 52 q-80 -42 -80 -72 q0 -26 -20 -36 l-12 0 l-8 16 l0 20 q26 55 44 72 l8 0 l0 -16 l8 0 l28 16 l0 8 l-36 36 l12 8 ZM91 59 l0 -4 l40 -8 l0 12 l-16 16 l-24 -16 Z" /><glyph glyph-name="" unicode="&#x5f52;" d="M135 227 l12 0 l8 -8 l0 -8 q-28 -106 -48 -248 l-12 -8 l-8 0 l-8 8 l48 244 l-4 12 l12 8 ZM63 175 l16 -16 l0 -12 l-4 -28 l8 0 l0 -4 q-16 -29 -28 -84 l-20 -4 l-8 0 l0 24 l32 124 l4 0 ZM211 163 l36 0 q36 -17 36 -28 q-20 -36 -44 -124 q-38 0 -64 -12 q0 7 -36 12 l-4 12 l20 36 l-4 16 q0 10 84 28 l4 36 l-24 8 l-48 -12 l-4 4 l0 4 l48 20 ZM167 63 l0 -8 l4 0 q21 0 24 12 l-8 0 l-20 -4 ZM183 47 l0 -4 l24 0 l12 12 l0 4 l-4 0 q-17 -12 -32 -12 Z" /><glyph glyph-name="" unicode="&#x5fe7;" d="M64 171 q16 -19 16 -32 l-4 -64 l12 8 l20 0 l12 -12 q-6 -16 -12 -16 l-12 0 q-10 0 -12 16 l-8 0 l-4 -76 l4 -24 l-12 -16 l-12 0 l-16 16 l0 8 l4 4 l-4 4 l4 40 l0 8 l-4 0 q0 -18 -20 -28 l-4 0 l-8 8 l8 72 l-4 12 l4 4 l4 0 q8 -10 12 -40 l-4 -32 q15 0 28 132 l12 8 ZM176 171 l16 -56 l0 -4 q-37 -30 -40 -48 q6 0 12 -16 l-4 -44 l16 -12 l8 0 q63 0 72 40 l0 28 l12 0 l0 -4 l-4 -12 l4 -20 l0 -24 q-9 -18 -28 -28 l-4 0 l-56 -4 q-40 0 -40 56 l-44 -48 l-8 8 l0 8 q42 56 52 92 l-16 0 l0 4 l24 16 q16 68 28 68 ZM204 163 l8 0 l20 -20 l0 -8 l-8 -8 l-8 0 l-12 12 l0 24 Z" /><glyph glyph-name="" unicode="&#x60a8;" d="M161 227 l-12 -60 q21 12 40 12 l4 0 l8 -8 l-28 -36 l4 -80 q-17 -16 -32 -16 l-24 8 l-16 -4 l-4 4 l0 20 q0 24 24 40 l8 -8 l-4 -12 q6 -16 20 -24 l0 28 l-4 48 l12 8 l4 0 l4 -4 l4 0 l8 12 l0 4 l-8 0 q-16 0 -40 -24 l-8 8 q20 37 32 84 l8 0 ZM69 203 q32 0 40 -28 l-32 -48 q12 -2 12 -32 l0 -8 q-21 -60 -36 -60 q-8 0 -8 12 q20 37 20 60 l-4 0 l-28 -4 l-8 12 l0 12 q36 51 36 80 l4 4 l4 0 ZM197 95 l12 0 l4 -20 l-16 -12 l-4 0 l0 4 l4 28 ZM213 39 l12 -12 l0 -4 q-8 -16 -20 -16 l-28 12 l-4 0 l0 -8 q52 -8 52 -24 q0 -32 -104 -32 q-49 0 -68 40 l12 8 q39 -28 68 -28 l28 0 l20 4 l0 8 l-36 12 l-36 -4 q-24 4 -24 12 l0 12 l12 12 l40 -4 l8 0 l68 12 ZM49 11 l0 -8 q-18 -44 -24 -44 l-4 0 l-8 8 q0 24 36 44 Z" /><glyph glyph-name="" unicode="&#x65e0;" d="M129 180 l7 0 l11 -11 l0 -7 q-29 -33 -39 -33 l0 -22 l63 15 l14 -11 l0 -7 q0 -7 -81 -26 l-3 -3 l0 -7 q14 0 14 -8 l0 -3 l-11 -44 l18 -21 l28 0 q85 0 85 61 l3 0 q9 0 11 -47 q0 -29 -53 -29 l-81 0 q-21 13 -21 32 l0 4 l3 40 l0 4 l-3 0 q-13 -36 -67 -102 l-4 0 q-7 0 -7 11 q37 46 53 91 l-7 0 q-16 -11 -32 -11 l-10 14 l0 11 q0 7 35 18 l28 33 l0 11 l-11 14 q0 8 18 8 l39 25 ZM76 97 l4 0 l7 7 l0 3 l-11 -10 Z" /><glyph glyph-name="" unicode="&#x672c;" d="M156 219 l20 0 l8 -8 l0 -4 l-8 -24 q17 -5 24 -20 l0 -8 q-60 -37 -60 -44 l0 -12 q21 12 40 12 l0 -8 q-52 0 -100 -88 q-16 -36 -24 -36 l-16 0 q-16 8 -16 24 q31 32 68 104 q-12 4 -12 24 q36 0 64 80 l12 8 ZM188 115 l4 0 q44 -3 44 -16 l0 -8 q0 -8 -28 -16 l0 8 q12 0 12 8 l0 4 q-2 12 -32 12 l0 8 ZM176 95 l8 -8 l0 -24 l4 0 l12 8 l4 0 l-20 -24 l0 -16 l20 16 l8 -8 q0 -9 -32 -20 l4 -4 l0 -24 l8 -56 l-4 -4 l-12 0 q-6 0 -12 16 l4 12 l-4 36 l4 4 l0 4 l-8 0 l-28 -16 l-12 0 l-4 16 l56 52 l0 16 l-4 20 l4 4 l4 0 Z" /><glyph glyph-name="" unicode="&#x6c7d;" d="M138 195 l4 0 l11 -12 l0 -24 l22 4 l11 -4 l0 -4 l-29 -36 l18 -4 l0 -12 l-15 -20 q41 0 41 -12 l0 -8 q0 -8 -22 -8 l-11 -28 q-15 -17 -15 -32 l0 -20 l18 -4 q63 8 63 52 l4 16 l7 0 l0 -60 q0 -24 -74 -24 l-11 0 q-26 0 -26 32 q4 23 30 76 l-4 0 l-62 -32 l-4 4 l0 8 l44 44 l0 4 l-7 0 q0 -10 -22 -20 l-4 4 l0 12 q15 24 26 24 q0 6 -15 12 l-4 4 l0 12 q26 37 26 56 ZM50 159 l3 0 l15 -12 l0 -4 l-7 -8 l-11 12 l0 12 ZM35 111 q7 -10 11 -76 l7 0 l19 28 l0 4 l7 0 l0 -4 l-40 -84 l-15 0 l-15 20 l0 12 q7 8 22 100 l4 0 Z" /><glyph glyph-name="" unicode="&#x7248;" d="M110 189 l12 -16 q0 -13 -16 -36 l0 -12 l8 0 l0 -4 q-3 -12 -48 -32 l-8 -32 l40 24 l20 0 l0 8 l8 0 q-21 -43 -24 -100 l-4 -4 l-4 0 l-12 12 l0 64 q-26 -5 -48 -52 l-12 -12 l-8 0 l-8 8 l0 12 q17 0 36 108 l-4 24 l4 4 l4 0 q24 -25 24 -40 l0 -4 l-4 -4 l0 -4 l4 0 l20 8 l8 72 l-4 4 l4 4 l12 0 ZM194 161 l12 0 l0 -4 l-28 -52 l4 0 l32 8 l4 -12 q-16 -27 -16 -48 l0 -8 q8 -12 68 -32 l0 -12 l-12 -12 l-4 0 q-30 0 -60 24 q-27 -24 -40 -24 l0 4 l-4 -4 l-32 0 l0 8 q60 4 60 28 l-24 20 l-8 0 q0 -14 -24 -32 l-8 8 l0 4 q0 10 56 96 l0 8 l-4 0 l-12 -4 q4 10 40 36 ZM162 61 l24 -12 l12 40 l0 4 l-4 0 l-32 -32 ZM98 53 l0 -12 l4 0 l4 24 q-8 0 -8 -12 Z" /><glyph glyph-name="" unicode="&#x74f7;" d="M127 187 l8 -8 l-12 -36 l4 0 l4 4 l4 0 q28 -5 28 -16 q-11 0 -32 -20 l-4 0 l0 -8 l28 0 l0 -8 q0 -7 -40 -16 l-4 -4 l0 -4 q12 0 12 -8 q-6 0 -12 -16 q20 0 20 -8 q-16 -36 -16 -56 l12 -4 q88 4 88 32 l16 20 l4 0 l8 -8 l0 -8 q0 -52 -112 -60 q-36 11 -36 32 q-11 -8 -56 -12 l-8 12 q60 47 60 60 l-4 0 l-20 -8 l-4 4 q0 18 24 24 l0 4 l-8 8 q0 8 28 32 l-12 12 l0 16 l12 20 l-4 20 l24 8 ZM35 159 l4 0 q22 0 32 -20 l0 -12 l-12 -4 q-18 0 -24 36 ZM79 131 l0 -8 q-33 -51 -60 -72 l-8 12 l0 8 q0 19 32 20 l36 40 ZM79 3 l4 0 l8 8 l-4 0 l-8 -8 Z" /><glyph glyph-name="" unicode="&#x7684;" d="M81 183 l8 0 q10 0 16 -32 q-12 -20 -32 -20 l-24 -52 l4 -16 q30 24 48 24 q16 -18 16 -44 q-9 -72 -60 -72 l-4 0 q-20 0 -24 64 q0 38 32 100 q0 25 20 48 ZM173 139 l0 -20 l4 -20 l-36 -28 l-8 8 l0 4 q25 29 32 56 l8 0 ZM201 111 l16 0 q12 -4 12 -24 l0 -84 q0 -48 -80 -48 q-28 0 -44 32 l4 4 l4 0 l16 -16 l8 0 q76 13 76 40 l4 24 l-4 40 l0 24 l-12 0 l0 8 ZM61 35 l32 -8 l4 4 l0 28 l-8 8 l-4 0 q-7 -1 -24 -32 ZM145 43 q30 0 44 -20 l0 -4 l-8 -8 l-8 0 l-40 28 l4 4 l8 0 ZM61 19 l0 -4 l4 -20 q21 0 24 12 l0 8 l-4 -4 l-4 0 l-12 8 l-8 0 Z" /><glyph glyph-name="" unicode="&#x76f8;" d="M66 151 q12 0 16 -72 l-8 -24 q27 16 36 56 q20 0 20 8 q9 15 32 28 l16 0 q24 -14 24 -36 l-8 -36 l8 -104 l-16 -16 q-69 0 -100 44 l8 48 l-28 -40 l0 -40 l-12 -12 l-8 36 l-12 -8 l-16 0 l-4 24 l36 56 l-24 0 l-16 16 l0 4 l8 8 l4 -4 l4 0 q27 9 36 28 l0 4 l-4 28 l4 4 l4 0 ZM134 107 l4 -20 l-4 0 q0 -16 28 -20 l0 -4 l-28 -24 l0 -4 l4 4 l8 0 l8 -8 q0 -16 -24 -16 l0 -4 q0 -36 36 -36 l8 0 l8 8 l0 12 q-6 128 -24 128 q-24 -9 -24 -16 Z" /><glyph glyph-name="" unicode="&#x78b0;" d="M162 187 l12 -12 l0 -12 l-16 -16 l-8 8 q4 32 12 32 ZM202 187 l4 -4 l0 -4 l-4 -20 q20 0 20 -8 l0 -4 l-20 -24 l20 -56 q12 0 12 -8 l-40 -44 l28 0 l32 -8 q-6 -16 -12 -16 l-116 0 l-48 -8 l0 12 l16 16 l24 0 l0 20 l40 28 l16 52 l-4 -4 l-12 0 l0 16 l44 64 ZM82 159 l16 0 l8 -8 l0 -4 l-36 -56 l0 -4 l28 4 l12 0 l8 -8 q-18 -35 -52 -56 l-4 4 l-4 0 l-4 -20 l-12 0 l0 16 l4 16 l0 4 l-4 0 q0 -12 -24 -32 l-8 8 l0 4 q0 19 28 40 l24 40 l0 8 l-20 0 l-12 12 l0 8 q16 0 52 24 ZM190 103 l-12 -40 l4 0 l16 4 l0 28 l-8 8 ZM66 71 l0 -20 l16 16 l0 4 l-16 0 ZM178 47 l-4 -12 l4 0 l12 12 l-12 0 Z" /><glyph glyph-name="" unicode="&#x79c1;" d="M53 159 l4 0 q44 -7 44 -36 l-16 -4 l0 -4 l12 -20 q-12 -20 -12 -40 l0 -20 l4 0 q64 33 64 80 l20 28 l8 -20 q0 -54 -32 -96 l4 0 q31 16 64 20 l4 -4 l0 -8 q-7 -9 -68 -28 q0 -8 -32 -8 q-12 13 -12 24 q-23 0 -24 -52 l-16 -16 l-4 0 q-12 0 -12 28 l-8 0 q0 -12 -8 -12 l-4 0 l-16 16 l0 20 l24 24 l0 8 l-20 0 l-8 8 q0 8 28 8 q30 22 36 64 q-22 21 -24 40 ZM225 83 l12 0 q13 0 16 -56 q0 -36 -16 -36 l-12 4 l8 32 l0 4 l-8 52 Z" /><glyph glyph-name="" unicode="&#x7ba1;" d="M159 196 l24 0 q22 0 28 -16 l-24 -16 l-4 0 q0 19 -16 24 l-8 0 q-9 0 -16 -28 l4 -16 l0 -4 l-4 -4 l0 -4 l16 -4 l0 -8 l-8 -8 l-8 0 q-8 0 -8 20 l-36 8 l-4 0 q0 -11 -24 -40 q-21 0 -24 12 l0 16 q35 35 40 64 l8 0 q20 -10 20 -32 l8 0 l36 36 ZM195 128 l16 0 l8 -8 q-68 -56 -68 -64 l24 16 l4 0 l8 -8 l-28 -32 q16 0 16 -8 q0 -8 -16 -8 l-4 -4 l0 -4 l12 0 l0 -8 q-13 0 -28 -12 l-4 4 l-4 0 l-4 -4 l0 -8 l8 0 q56 10 56 24 l-16 0 l0 8 l28 4 l8 -8 l0 -4 l-16 -16 l4 -4 l0 -4 q0 -16 -56 -16 l-12 0 l-4 4 l-4 -4 l-4 0 l-8 8 q0 51 40 108 l-4 0 q-72 -15 -72 -44 l-12 -8 l-8 0 l-8 8 l0 8 q14 23 44 48 l12 -12 q42 12 92 48 ZM147 44 l0 -8 l20 12 l0 8 l-20 -12 ZM131 0 l0 -4 l4 0 l12 20 l-4 16 q-12 -2 -12 -32 Z" /><glyph glyph-name="" unicode="&#x7ea2;" d="M78 191 l16 -16 l4 -4 l0 -12 l-36 -52 l12 -12 l0 -12 q-20 -27 -20 -40 l4 4 l4 0 q12 0 12 -24 l8 0 q0 20 8 20 l4 0 l-4 -20 q64 0 64 36 l4 12 q-36 0 -40 16 l0 4 q0 8 36 8 q21 16 36 16 l8 0 l12 -12 q-10 -24 -24 -24 l0 -24 l-4 -20 q56 -7 56 -20 l0 -16 q0 -8 -32 -12 l-4 -4 l0 -4 q-95 0 -120 32 q-20 -54 -32 -56 l-8 8 l0 16 l12 40 l-12 0 q0 -12 -20 -24 l-8 8 l0 8 l28 56 l4 12 q-32 4 -32 12 q0 12 64 100 Z" /><glyph glyph-name="" unicode="&#x884c;" d="M100 211 q8 0 8 -12 q-3 -31 -40 -80 l12 -12 l0 -12 l-24 -36 q8 0 8 -20 l8 0 l-12 -56 l52 -8 q56 12 56 32 l16 84 l-4 0 q-51 -28 -68 -28 l-12 0 l0 12 q0 7 52 20 q0 14 72 28 l8 -8 l0 -4 q0 -7 -36 -24 l-4 -24 l0 -8 l8 -72 q-22 -28 -64 -28 q-70 16 -80 24 l-4 -12 l-16 12 l0 8 l8 44 l0 8 l-24 -16 l-4 4 l0 4 q0 19 36 44 q12 15 12 28 l0 4 l-4 0 l-20 -16 l-20 16 l80 104 ZM200 167 l4 -4 l0 -4 l-20 -20 q-44 6 -44 16 q0 12 60 12 Z" /><glyph glyph-name="" unicode="&#x8ba9;" d="M171 166 l24 -28 l0 -8 q-8 -10 -12 -40 q32 -2 32 -12 l0 -8 q-16 -24 -32 -24 l0 -28 l8 -8 l36 4 l8 -8 l0 -12 q-33 -20 -100 -20 q-16 0 -24 16 l0 4 q31 36 44 36 l8 132 l4 4 l4 0 ZM67 154 l20 0 q16 -8 16 -20 q-5 -16 -20 -24 l-24 32 l0 4 l8 8 ZM91 94 l8 -8 l0 -12 q-20 -22 -20 -52 l12 8 l4 0 l0 -12 q-16 -52 -32 -52 l-4 0 q-12 4 -12 24 l0 4 q20 34 20 48 l0 8 l-4 -4 l-8 0 l-16 16 l0 12 q0 8 52 20 ZM135 6 l20 -4 l4 0 l-4 20 l-4 0 l-16 -16 Z" /><glyph glyph-name="" unicode="&#x8d28;" d="M162 215 l8 0 q16 -8 16 -24 q-33 -20 -76 -20 q-18 8 -20 16 q0 10 72 28 ZM134 163 l4 0 q8 0 8 -12 l24 0 l8 -8 q0 -8 -24 -8 q-32 -14 -32 -32 l36 20 l8 0 q9 0 16 -36 l-8 -76 q52 -9 52 -24 l0 -4 l-12 -12 l-4 0 q-36 0 -80 36 l-4 0 q-23 -52 -40 -52 l-12 12 l0 12 l20 16 l-4 4 l0 4 l20 116 l-4 12 l4 0 l24 32 ZM62 147 l8 0 l8 -48 q-12 -82 -40 -124 l-16 12 l0 16 q27 37 40 144 ZM114 47 l0 -4 l4 0 q4 24 12 24 l8 -8 l-4 -32 l4 0 l12 -4 l4 28 l0 48 q-33 0 -40 -52 Z" /><glyph glyph-name="" unicode="&#x8def;" d="M147 187 l12 0 l16 -20 q12 0 12 -8 l0 -24 l-20 -44 l0 -4 l4 -4 l0 -4 l40 4 l12 0 l16 -16 l0 -4 q0 -13 -48 -16 l-36 8 l-8 -24 l-4 0 l4 -12 l48 8 l16 0 l12 -12 l-12 -20 l4 -24 q-19 -16 -72 -16 q-12 10 -12 48 l-32 -20 l-8 12 l0 20 l8 0 l4 -4 l4 0 q32 45 32 64 q-20 3 -20 12 l0 4 l32 0 q0 15 20 52 l0 4 l-4 0 q0 -16 -12 -16 l-12 12 l4 44 ZM99 171 l8 -12 l0 -12 l-20 -24 l4 -20 l-16 -20 l8 -12 l0 -32 q-58 -84 -64 -84 l-8 12 l0 16 l12 52 l12 0 l0 -32 l16 16 l0 56 q-12 0 -24 20 l0 8 l8 36 l-8 16 l4 4 l8 0 q16 -8 16 -40 l16 20 l0 4 q-16 0 -16 12 q0 13 44 16 ZM155 -5 l0 -8 q21 0 24 12 l-4 0 l-20 -4 Z" /><glyph glyph-name="" unicode="&#x8f66;" d="M140 211 q9 0 12 -20 l-8 -20 l32 0 l8 -8 l0 -12 l-12 -12 l-36 4 q-20 -45 -20 -64 l4 0 q28 0 28 44 l4 4 l4 0 q8 0 12 -32 l8 -8 l0 -4 l-12 -16 l0 -28 l12 0 l16 4 q32 -3 32 -24 l-4 -4 l-36 0 l-4 4 l-16 -4 q-4 -60 -16 -60 l-8 0 q-12 0 -16 32 l8 24 l-44 -4 q-48 13 -48 20 l8 8 l20 0 l68 4 l0 20 l-24 -12 q-18 8 -20 16 l0 4 q0 25 20 88 l-16 16 l24 8 q0 14 20 32 Z" /><glyph glyph-name="" unicode="&#x91cd;" d="M125 199 l16 0 q24 0 40 -24 l-8 -8 l-12 0 q-19 0 -36 24 l0 8 ZM161 159 l20 0 q9 0 12 -20 q-20 -10 -20 -32 l0 -4 l24 0 l8 -8 l0 -4 q-8 -36 -36 -36 l0 -24 l24 -8 l-28 -32 l8 0 l4 4 l4 0 q21 0 24 -28 l-12 -8 l-8 0 l-68 -4 l-4 4 l0 24 q0 7 24 16 l0 4 q-16 0 -16 8 l4 4 q0 7 20 8 l4 4 l0 16 q-24 0 -24 16 l0 8 l-8 0 q-36 -17 -36 -24 l-4 -4 l-8 0 l-4 4 l-4 0 q0 22 44 64 l-4 0 l-32 -8 l-8 0 q-12 4 -12 24 q38 0 112 36 ZM145 103 l0 -4 l8 0 l0 12 l-8 -8 ZM129 107 q0 -12 -12 -12 l-4 -4 l0 -4 l12 0 l8 16 l0 4 l-4 0 ZM169 91 l0 -24 q9 1 24 24 l-4 4 l-4 0 l-16 -4 ZM137 71 l4 -12 l4 0 l8 8 l0 12 l-4 0 l-12 -8 Z" /><glyph glyph-name="" unicode="&#x961f;" d="M103 175 l8 -12 l0 -8 q-20 -33 -20 -60 l0 -4 l24 -32 l0 -16 l-40 -40 q0 -48 -12 -48 l-8 0 l-12 12 l0 52 l4 24 l-4 20 l0 16 l8 8 l4 0 q8 0 20 -52 l20 0 l0 16 l-20 40 l8 40 l-32 -16 l-8 0 l-12 12 l0 4 q61 44 72 44 ZM179 143 l4 0 l12 -12 l0 -20 q-11 -43 -24 -60 l0 -8 q76 -17 92 -40 l0 -4 q-8 -16 -20 -16 l-88 48 q-2 -22 -28 -44 l-8 0 l-8 8 l0 8 q45 39 56 96 q4 44 12 44 Z" /><glyph glyph-name="" unicode="&#x9669;" d="M73 175 l24 0 l12 -12 q-24 -36 -24 -48 q24 -17 24 -36 l4 0 q22 64 48 96 l4 -4 l0 -12 l-4 -20 l60 8 l4 -4 l0 -4 q-12 -20 -28 -20 l0 -4 l8 0 l0 -8 q-5 -20 -64 -44 l-4 -4 l0 -4 l16 -24 l0 -20 l4 0 l16 16 l0 8 q-12 0 -12 8 l0 8 l8 8 l16 -12 q8 18 16 20 l8 -12 q0 -20 -32 -36 l0 -4 l4 0 l24 8 l4 0 q24 -2 24 -12 l0 -4 q0 -13 -92 -24 l-28 0 l-8 8 q9 8 28 8 q-12 16 -12 44 q0 21 20 32 l-4 4 l0 12 l44 24 l4 4 l8 12 l-4 0 q-56 -7 -56 -44 l-16 -28 l-8 0 l0 12 l-8 0 q0 -17 -40 -52 q0 -51 -24 -64 l-16 20 l0 12 l16 64 l-4 20 l4 0 l-8 24 l0 4 l8 8 l4 0 q12 0 24 -56 l8 0 l8 28 q-24 20 -24 52 l-4 -4 l-4 0 q-28 6 -28 16 q0 5 36 16 l16 16 Z" /><glyph glyph-name="" unicode="&#x969c;" d="M160 211 l8 -8 l0 -8 l-8 -8 l-8 0 l-12 12 l0 8 l20 4 ZM84 179 l8 -12 l0 -4 q-36 -31 -36 -48 q20 -7 20 -20 l4 0 q48 21 48 36 l20 28 l-8 12 l8 8 l20 0 l8 -8 l-8 -8 l0 -4 l4 0 l20 4 l4 -4 l0 -12 l-4 -4 l0 -4 l4 -4 l4 0 q-6 -20 -28 -20 l0 -4 l4 0 l16 4 l12 -12 l-20 -44 q10 -26 20 -28 l16 4 l0 -12 q0 -8 -24 -8 l0 -4 q-3 -76 -28 -76 l-8 16 l8 60 l-8 0 q-17 0 -68 -28 l-4 0 l-8 8 l0 4 q0 10 40 24 l12 -4 l36 20 l0 4 q-22 0 -36 16 q0 -21 -16 -28 l-8 8 l0 16 l12 40 l-4 0 l-32 -12 l-4 4 l-4 0 q0 -16 -24 -28 l-4 -16 l0 -12 l4 0 q0 12 8 12 l0 -4 q-12 -60 -24 -60 l-8 12 l12 84 l-12 24 l0 4 l8 8 q8 0 16 -24 l16 0 l0 8 q-16 0 -20 24 l4 20 q-22 0 -28 20 q35 24 60 24 ZM132 123 l4 0 l24 12 l0 4 l-4 0 q-24 -8 -24 -16 ZM152 107 q-28 -22 -28 -40 l0 -4 l4 0 q0 25 32 40 l0 4 l-8 0 ZM148 91 l0 -4 l4 0 l24 8 l8 -16 l4 0 l4 20 l-4 4 l-4 0 l-36 -12 ZM148 71 l0 -4 l12 -12 q12 4 12 24 l-4 4 l-4 0 q-16 -6 -16 -12 Z" /><glyph glyph-name="" unicode="&#x98ce;" d="M164 163 l16 -12 q-24 -53 -24 -144 l4 -12 l28 0 q24 0 40 24 l0 4 l-4 28 l12 0 q0 -23 12 -36 l0 -16 q-1 -14 -72 -32 q-40 0 -40 64 l0 8 l8 92 l-4 4 l-48 -16 l0 4 q39 40 72 40 ZM32 95 l4 0 q13 0 16 -44 l-4 -40 l4 0 l24 36 l0 8 q0 8 -16 8 l-4 4 l0 4 l12 8 l8 0 l4 -4 l4 0 q8 18 16 20 l8 0 l0 -28 l24 -32 l0 -8 l-8 -8 l-8 0 l-16 12 l-4 0 q-4 -40 -36 -40 l-16 4 q-5 -40 -16 -40 q-12 4 -12 24 l16 80 l0 36 Z" /><glyph glyph-name="" unicode="&#x9a7e;" d="M99 223 l4 0 q8 0 8 -20 q24 -8 24 -32 l0 -4 q-29 -62 -64 -88 l-8 20 l-4 0 q-17 -44 -40 -44 l-4 4 l0 20 q37 35 52 68 l0 12 q-16 0 -16 12 l32 28 q0 18 16 24 ZM211 207 l8 -12 l0 -4 q-19 -31 -52 -60 q0 -35 -12 -76 q64 0 80 -28 l0 -12 q-33 -50 -56 -60 l-40 0 l-56 16 l-40 -4 l-8 12 l0 4 q7 20 88 20 l12 0 l20 -4 l0 -4 q0 -9 -32 -12 l0 -4 l40 -4 l12 0 q13 0 28 52 l-4 4 l-44 0 l-48 -12 l-8 8 l0 12 l16 40 l-4 16 l40 28 l-12 56 q12 0 64 28 l8 0 ZM163 175 l4 -20 l4 0 l20 24 l-20 0 l-4 -4 l-4 0 ZM99 175 l-24 -64 l0 -8 l8 0 l20 68 l0 4 l-4 0 ZM131 55 q20 0 20 36 l0 12 l-8 0 q-8 0 -12 -48 Z" /></font>
</defs>
</svg>
